<svg width="479" height="89" viewBox="0 0 479 89" fill="none" xmlns="http://www.w3.org/2000/svg">
<path d="M48.3956 0.5L0.838867 88.5H20.0335L57.2767 20.2785L94.8064 88.5H113.715L65.8713 0.5H48.3956Z" fill="white"/>
<path d="M136.347 88.5V0.5H153.823V73.3078H215.99V88.5H136.347Z" fill="white"/>
<path d="M215.99 15.9788V0.5H309.098V15.9788H270.709V88.5H252.088V15.9788H215.99Z" fill="white"/>
<path d="M333.163 88.5V0.5H350.639V88.5H333.163Z" fill="white"/>
<path d="M401.06 0.5H471.536V15.9788H405.071C405.071 15.9788 395.904 15.9788 395.904 26.0114C395.904 34.8974 405.071 34.8974 405.071 34.8974H455.779C455.779 34.8974 477.839 34.8974 477.839 59.8355C477.839 88.5 455.779 88.5 455.779 88.5H379.86V72.1612H451.482C451.482 72.1612 460.077 72.1612 460.077 59.8355C460.077 50.3762 451.482 50.3762 451.482 50.3762H401.06C401.06 50.3762 378.142 50.3762 378.142 23.7182C378.142 0.5 401.06 0.5 401.06 0.5Z" fill="white"/>
<path d="M48.3956 0.5L0.838867 88.5H20.0335L57.2767 20.2785L94.8064 88.5H113.715L65.8713 0.5H48.3956Z" stroke="white"/>
<path d="M136.347 88.5V0.5H153.823V73.3078H215.99V88.5H136.347Z" stroke="white"/>
<path d="M215.99 15.9788V0.5H309.098V15.9788H270.709V88.5H252.088V15.9788H215.99Z" stroke="white"/>
<path d="M333.163 88.5V0.5H350.639V88.5H333.163Z" stroke="white"/>
<path d="M401.06 0.5H471.536V15.9788H405.071C405.071 15.9788 395.904 15.9788 395.904 26.0114C395.904 34.8974 405.071 34.8974 405.071 34.8974H455.779C455.779 34.8974 477.839 34.8974 477.839 59.8355C477.839 88.5 455.779 88.5 455.779 88.5H379.86V72.1612H451.482C451.482 72.1612 460.077 72.1612 460.077 59.8355C460.077 50.3762 451.482 50.3762 451.482 50.3762H401.06C401.06 50.3762 378.142 50.3762 378.142 23.7182C378.142 0.5 401.06 0.5 401.06 0.5Z" stroke="white"/>
</svg>
