<svg width="256" height="296" viewBox="0 0 256 296" fill="none" xmlns="http://www.w3.org/2000/svg">
<rect width="256" height="296" fill="url(#paint0_linear_164_46)"/>
<path d="M99.3834 117.039L92.1749 129.853C91.4516 131.138 91.4948 132.718 92.2873 133.962L96.8972 141.201C98.5313 143.767 102.318 143.642 103.779 140.974L108.362 132.608C109.064 131.326 110.409 130.529 111.87 130.529H153.965C155.413 130.529 156.749 129.747 157.456 128.483L161.669 120.953C163.161 118.287 161.234 115 158.178 115H102.87C101.425 115 100.092 115.779 99.3834 117.039Z" fill="#C3C3C3"/>
<path d="M113.117 141.315L96.946 169.945C96.2192 171.231 96.2611 172.814 97.0549 174.061L101.693 181.343C103.32 183.898 107.086 183.787 108.561 181.141L122.091 156.864C122.797 155.597 124.134 154.812 125.585 154.812H139.95C141.398 154.812 142.734 154.029 143.441 152.765L147.654 145.236C149.146 142.569 147.218 139.282 144.163 139.282H116.6C115.157 139.282 113.826 140.059 113.117 141.315Z" fill="#C3C3C3"/>
<defs>
<linearGradient id="paint0_linear_164_46" x1="163.84" y1="69.0667" x2="-63.1516" y2="251.182" gradientUnits="userSpaceOnUse">
<stop stop-color="#222222"/>
<stop offset="0.817356"/>
</linearGradient>
</defs>
</svg>
