<svg width="115" height="111" viewBox="0 0 115 111" fill="none" xmlns="http://www.w3.org/2000/svg">
<g filter="url(#filter0_i_160_2)">
<path d="M12.7275 3.04368L0.778989 24.1458C-0.317486 26.0823 -0.252122 28.4666 0.948799 30.34L9.01141 42.9181C11.4657 46.747 17.1215 46.5597 19.3172 42.5769L27.2855 28.1229C28.3409 26.2085 30.3539 25.0196 32.54 25.0196H101.398C103.565 25.0196 105.563 23.8516 106.626 21.9639L113.959 8.94433C116.212 4.94467 113.321 0 108.731 0H17.9486C15.787 0 13.7925 1.1627 12.7275 3.04368Z" fill="#0077FF"/>
<path d="M34.9984 42.1562L8.51524 88.7388C7.41356 90.6766 7.47697 93.0655 8.67991 94.9421L16.7841 107.585C19.2279 111.397 24.8528 111.232 27.0683 107.283L49.55 67.2057C50.6117 65.313 52.6127 64.1412 54.7829 64.1412H78.6712C80.8377 64.1412 82.836 62.9732 83.8991 61.0855L91.2317 48.0659C93.4843 44.0662 90.5941 39.1216 86.0038 39.1216H40.2144C38.0565 39.1216 36.0648 40.2803 34.9984 42.1562Z" fill="#0077FF"/>
</g>
<defs>
<filter id="filter0_i_160_2" x="0" y="0" width="115.74" height="112.347" filterUnits="userSpaceOnUse" color-interpolation-filters="sRGB">
<feFlood flood-opacity="0" result="BackgroundImageFix"/>
<feBlend mode="normal" in="SourceGraphic" in2="BackgroundImageFix" result="shape"/>
<feColorMatrix in="SourceAlpha" type="matrix" values="0 0 0 0 0 0 0 0 0 0 0 0 0 0 0 0 0 0 127 0" result="hardAlpha"/>
<feOffset dx="1" dy="2"/>
<feGaussianBlur stdDeviation="1.7"/>
<feComposite in2="hardAlpha" operator="arithmetic" k2="-1" k3="1"/>
<feColorMatrix type="matrix" values="0 0 0 0 0.615159 0 0 0 0 0.781924 0 0 0 0 1 0 0 0 1 0"/>
<feBlend mode="normal" in2="shape" result="effect1_innerShadow_160_2"/>
</filter>
</defs>
</svg>
