<svg width="256" height="296" viewBox="0 0 256 296" fill="none" xmlns="http://www.w3.org/2000/svg">
<rect width="256" height="296" fill="url(#paint0_linear_164_16)"/>
<g filter="url(#filter0_i_164_16)">
<path d="M123.238 64C154.85 64 180.477 89.6264 180.478 121.238C180.478 122.101 180.458 122.958 180.42 123.811C180.308 126.337 178.154 128.224 175.626 128.224H172.39C167.936 128.224 165.705 133.609 168.854 136.759L187.163 155.068C189.701 157.607 189.701 161.722 187.163 164.261L174.954 176.469C172.416 179.007 168.3 179.007 165.762 176.469L123.889 134.596C119.795 130.501 122.695 123.5 128.485 123.5H149.061C150.34 123.5 151.418 122.517 151.418 121.238C151.418 105.676 138.801 93.0596 123.238 93.0596C107.676 93.0598 95.0598 105.676 95.0596 121.238C95.0596 136.801 107.676 149.418 123.238 149.418C124.724 149.418 126.182 149.302 127.606 149.08C129.362 148.806 131.187 149.267 132.443 150.524L147.863 165.943C150.17 168.25 149.681 172.12 146.706 173.46C139.545 176.683 131.601 178.478 123.238 178.478C91.6264 178.477 66 152.85 66 121.238C66.0002 89.6265 91.6265 64.0002 123.238 64Z" fill="#DD0000"/>
</g>
<path d="M118.402 226.455L123.402 240.432H123.459L128.459 226.455H128.942L123.743 241H123.118L117.919 226.455H118.402ZM134.675 226.455V241H134.221V226.938H134.135L131.01 229.011V228.472L134.05 226.455H134.675Z" fill="white"/>
<path d="M99.8842 211.545H102.202L104.146 214.102L104.657 214.784L107.555 218.636H105.237L103.327 216.08L102.85 215.432L99.8842 211.545ZM108.271 208.273C108.271 210.114 107.938 211.705 107.273 213.045C106.609 214.386 105.697 215.42 104.538 216.148C103.379 216.875 102.055 217.239 100.566 217.239C99.0774 217.239 97.7536 216.875 96.5945 216.148C95.4354 215.42 94.5234 214.386 93.8587 213.045C93.1939 211.705 92.8615 210.114 92.8615 208.273C92.8615 206.432 93.1939 204.841 93.8587 203.5C94.5234 202.159 95.4354 201.125 96.5945 200.398C97.7536 199.67 99.0774 199.307 100.566 199.307C102.055 199.307 103.379 199.67 104.538 200.398C105.697 201.125 106.609 202.159 107.273 203.5C107.938 204.841 108.271 206.432 108.271 208.273ZM106.225 208.273C106.225 206.761 105.972 205.486 105.467 204.446C104.967 203.406 104.288 202.619 103.43 202.085C102.577 201.551 101.623 201.284 100.566 201.284C99.5092 201.284 98.5518 201.551 97.6939 202.085C96.8416 202.619 96.1626 203.406 95.657 204.446C95.157 205.486 94.907 206.761 94.907 208.273C94.907 209.784 95.157 211.06 95.657 212.099C96.1626 213.139 96.8416 213.926 97.6939 214.46C98.5518 214.994 99.5092 215.261 100.566 215.261C101.623 215.261 102.577 214.994 103.43 214.46C104.288 213.926 104.967 213.139 105.467 212.099C105.972 211.06 106.225 209.784 106.225 208.273ZM123.279 199.545H125.393V211.102C125.393 212.295 125.112 213.361 124.549 214.298C123.992 215.23 123.205 215.966 122.188 216.506C121.171 217.04 119.978 217.307 118.609 217.307C117.239 217.307 116.046 217.04 115.029 216.506C114.012 215.966 113.222 215.23 112.66 214.298C112.103 213.361 111.825 212.295 111.825 211.102V199.545H113.938V210.932C113.938 211.784 114.126 212.543 114.501 213.207C114.876 213.866 115.41 214.386 116.103 214.767C116.802 215.142 117.637 215.33 118.609 215.33C119.58 215.33 120.415 215.142 121.114 214.767C121.813 214.386 122.347 213.866 122.717 213.207C123.092 212.543 123.279 211.784 123.279 210.932V199.545ZM130.33 217H128.114L134.523 199.545H136.705L143.114 217H140.898L135.682 202.307H135.545L130.33 217ZM131.148 210.182H140.08V212.057H131.148V210.182ZM147.946 199.545V217H145.832V199.545H147.946ZM152.184 217V199.545H154.298V215.125H162.411V217H152.184Z" fill="white"/>
<defs>
<filter id="filter0_i_164_16" x="66" y="64" width="123.067" height="118.478" filterUnits="userSpaceOnUse" color-interpolation-filters="sRGB">
<feFlood flood-opacity="0" result="BackgroundImageFix"/>
<feBlend mode="normal" in="SourceGraphic" in2="BackgroundImageFix" result="shape"/>
<feColorMatrix in="SourceAlpha" type="matrix" values="0 0 0 0 0 0 0 0 0 0 0 0 0 0 0 0 0 0 127 0" result="hardAlpha"/>
<feOffset dy="4"/>
<feGaussianBlur stdDeviation="2"/>
<feComposite in2="hardAlpha" operator="arithmetic" k2="-1" k3="1"/>
<feColorMatrix type="matrix" values="0 0 0 0 1 0 0 0 0 1 0 0 0 0 1 0 0 0 0.25 0"/>
<feBlend mode="normal" in2="shape" result="effect1_innerShadow_164_16"/>
</filter>
<linearGradient id="paint0_linear_164_16" x1="163.84" y1="69.0667" x2="-63.1516" y2="251.182" gradientUnits="userSpaceOnUse">
<stop stop-color="#222222"/>
<stop offset="0.817356"/>
</linearGradient>
</defs>
</svg>
